<svg width="52" height="40" viewBox="0 0 52 40" fill="none" xmlns="http://www.w3.org/2000/svg">
<path d="M23.7219 29.6085C23.7219 23.6299 20.0209 19.7865 13.6152 19.7865C12.334 19.7865 11.3376 20.0712 10.6258 20.4982C10.9105 13.9502 16.8892 9.53737 22.2984 8.68328L22.2984 1.9289e-06C13.3305 0.854091 0.234374 7.25979 0.234373 26.3345C0.234372 33.879 5.07423 40 12.6187 40C19.3091 40 23.7219 35.1602 23.7219 29.6085ZM51.7646 29.6085C51.7646 23.6299 48.0636 19.7865 41.6579 19.7865C40.3767 19.7865 39.3803 20.0712 38.6685 20.4982C38.9532 13.9502 44.9319 9.53737 50.3411 8.68328L50.3411 4.38047e-06C41.3732 0.854094 28.2771 7.25979 28.2771 26.3345C28.2771 33.879 33.1169 40 40.6614 40C47.3518 40 51.7646 35.1602 51.7646 29.6085Z" fill="url(#paint0_linear_469_26995)"/>
<defs>
<linearGradient id="paint0_linear_469_26995" x1="-2.36578" y1="20" x2="54.3648" y2="20" gradientUnits="userSpaceOnUse">
<stop stop-color="#FFB000"/>
<stop offset="1" stop-color="#FF5E31"/>
</linearGradient>
</defs>
</svg>
