<svg version="1.1" id="Layer_1" xmlns="http://www.w3.org/2000/svg" xmlns:xlink="http://www.w3.org/1999/xlink" x="0px" y="0px"
	 width="100%" viewBox="0 0 1280 784" enable-background="new 0 0 1280 784" xml:space="preserve">
<path fill="#000000" opacity="1.000000" stroke="none" 
	d="
M1281.000000,307.000000 
	C1281.000000,466.272247 1281.000000,625.544495 1281.000000,785.000000 
	C1068.642578,785.000000 856.285156,785.000000 643.219666,784.675903 
	C654.427124,777.544739 666.374023,770.791870 678.251953,763.919678 
	C705.786987,747.988708 733.252563,731.937439 760.824768,716.071106 
	C769.684082,710.973022 773.939026,703.337646 773.959900,693.400208 
	C774.052917,649.070862 773.991028,604.741272 774.008972,560.411743 
	C774.012146,552.535645 771.296082,545.729370 764.748047,541.388794 
	C755.469543,535.238159 745.783325,529.690674 736.165771,524.066040 
	C719.888733,514.546692 703.541809,505.146698 687.200439,495.737854 
	C673.275635,487.720398 659.370300,479.666595 645.353577,471.812256 
	C637.203796,467.245483 628.712341,467.979950 620.811768,472.184143 
	C609.527710,478.188873 598.566345,484.802887 587.497803,491.209503 
	C561.816772,506.074127 536.277954,521.190369 510.427948,535.754700 
	C498.684509,542.371155 492.704773,551.216614 492.844666,565.138916 
	C493.271576,607.630920 492.925262,650.130249 493.058075,692.626160 
	C493.087311,701.979675 496.541443,709.914368 504.949280,714.977173 
	C511.966492,719.202515 518.998413,723.405457 526.082458,727.517212 
	C538.542358,734.749268 551.209473,741.430908 566.347229,739.988220 
	C581.306824,738.562439 591.283508,732.229980 595.660889,717.401672 
	C597.130005,712.425110 597.849609,707.049011 597.870361,701.851379 
	C598.041443,659.022461 597.988770,616.192566 597.929443,573.363037 
	C597.924316,569.657410 596.077576,567.584717 591.953613,567.949402 
	C588.977112,568.212585 585.958679,567.998657 582.958923,568.000549 
	C575.096069,568.005432 575.001099,568.092407 575.000671,575.765076 
	C574.998474,617.928101 574.827148,660.092346 575.109131,702.253479 
	C575.189331,714.246582 563.268921,721.268250 554.636047,716.890686 
	C541.808716,710.386169 529.322632,703.201172 516.811707,696.093933 
	C515.746216,695.488708 515.079041,693.294067 515.075989,691.835938 
	C514.985413,648.673218 514.969238,605.510071 515.121033,562.347656 
	C515.127258,560.580261 516.418091,558.072083 517.884338,557.177795 
	C526.558838,551.886963 535.478882,547.000305 544.284973,541.923157 
	C558.779053,533.566650 573.240295,525.152954 587.732239,516.792664 
	C601.939392,508.596710 616.120117,500.352081 630.450073,492.375946 
	C632.134766,491.438263 635.110718,491.252350 636.769531,492.109192 
	C643.754150,495.716827 650.469666,499.846375 657.277283,503.795898 
	C673.445801,513.176208 689.612854,522.559143 705.776367,531.948059 
	C720.098511,540.267273 734.474976,548.496704 748.654541,557.052368 
	C750.328979,558.062683 751.851440,560.880615 751.859802,562.867310 
	C752.041443,606.029480 752.036743,649.192810 751.860718,692.355042 
	C751.853455,694.134094 750.265503,696.644714 748.685730,697.566589 
	C730.278870,708.308228 711.699829,718.754150 693.231323,729.391052 
	C674.909851,739.943298 656.613586,750.541504 638.423035,761.316650 
	C634.705627,763.518616 631.952637,763.384460 628.299133,760.997620 
	C620.485596,755.893127 612.236877,751.459290 604.245667,746.619873 
	C601.740417,745.102783 599.640320,744.999207 596.963684,746.412292 
	C592.333679,748.856628 587.418823,750.755737 582.687988,753.018616 
	C581.364685,753.651611 580.267944,754.758301 579.067261,755.647705 
	C580.147095,756.789062 581.038330,758.245178 582.336243,759.022522 
	C593.727051,765.844910 605.227783,772.484070 616.604309,779.329834 
	C619.249146,780.921387 621.544067,783.094482 624.000000,785.000000 
	C416.426941,785.000000 208.853867,785.000000 1.000000,785.000000 
	C1.000000,676.309387 1.000000,567.618591 1.363408,458.488678 
	C6.664457,462.419067 11.447693,460.679413 16.349823,457.848358 
	C38.517021,445.046295 60.655888,432.192291 82.955734,419.624542 
	C89.940674,415.687958 93.142754,410.373871 93.080246,402.302185 
	C92.864822,374.481567 93.072624,346.657867 92.948349,318.836151 
	C92.917267,311.877441 95.291252,306.573700 101.422188,303.066315 
	C111.365288,297.378113 121.304688,291.682526 131.195145,285.903595 
	C136.204041,282.976929 141.219910,283.509430 145.936844,286.110931 
	C155.243469,291.243713 164.209503,297.007324 173.608322,301.955536 
	C181.433990,306.075531 184.072510,312.403381 184.040543,320.747864 
	C183.933380,348.736389 184.048187,376.725647 183.969925,404.714355 
	C183.952255,411.030182 186.670242,415.480804 192.040939,418.549591 
	C199.968781,423.079590 207.851395,427.688873 215.787262,432.204651 
	C231.535110,441.165619 247.275223,450.141418 263.108276,458.949799 
	C265.007446,460.006378 267.536072,460.695435 269.646515,460.453217 
	C274.382660,459.909637 275.988464,457.065552 275.989960,450.359650 
	C276.003693,388.550812 275.903259,326.741669 276.118195,264.933594 
	C276.145599,257.066803 272.857849,251.949402 266.515747,248.265717 
	C249.003601,238.094116 231.457947,227.979965 213.901505,217.884903 
	C193.890594,206.378494 173.666641,195.227341 153.906570,183.306351 
	C143.930542,177.287964 135.116608,175.170303 124.584465,182.453079 
	C114.098183,189.704147 102.543427,195.410583 91.453735,201.788330 
	C68.120010,215.207657 44.744621,228.555252 21.473013,242.081421 
	C14.501101,246.133713 7.816324,250.680023 0.999999,255.000000 
	C1.000000,170.365982 1.000000,85.731972 1.000000,1.000000 
	C285.690735,1.000000 570.381531,1.000000 855.537720,1.394806 
	C855.335510,5.822466 854.314758,9.835259 854.084167,13.892961 
	C853.753723,19.707436 854.000061,25.554691 853.999939,31.387949 
	C853.998962,85.053925 854.039062,138.720016 853.873657,192.385483 
	C853.865479,195.029785 852.689453,198.355896 850.846008,200.033890 
	C849.852600,200.938126 846.058594,199.440079 843.919556,198.294846 
	C834.543518,193.274811 825.347290,187.920319 816.010559,182.825150 
	C811.151306,180.173370 805.945496,180.058792 801.155640,182.719421 
	C787.642883,190.225433 774.261475,197.968918 760.862671,205.678574 
	C735.362000,220.351669 709.975098,235.225830 684.349731,249.677414 
	C675.335693,254.760910 670.588379,260.846802 670.743103,272.122681 
	C671.364868,317.446899 671.044678,362.784760 670.952332,408.117310 
	C670.939453,414.430725 673.402893,418.883514 678.842773,421.989319 
	C691.678101,429.317535 704.453918,436.750061 717.242188,444.160461 
	C744.134583,459.743774 771.035889,475.311768 797.896484,490.949768 
	C805.036377,495.106506 811.964172,495.121613 819.110168,490.933868 
	C833.865173,482.287079 848.707947,473.789948 863.511414,465.225677 
	C887.806946,451.169952 912.021667,436.971619 936.442871,423.137909 
	C943.546448,419.113983 946.125366,413.715576 946.112793,405.668610 
	C945.944153,298.003601 946.000183,190.338242 945.999695,82.672974 
	C945.999634,73.339767 945.966431,64.006454 946.002380,54.673397 
	C946.021790,49.625675 944.190857,45.548733 939.801270,42.923035 
	C935.109680,40.116661 930.324707,37.464233 925.547974,34.802910 
	C907.259094,24.613407 888.943359,14.471797 870.692932,4.213994 
	C869.553223,3.573414 868.886658,2.090851 868.000000,0.999999 
	C1005.578552,1.000000 1143.157104,1.000000 1281.000000,1.000000 
	C1281.000000,86.023895 1281.000000,171.048065 1280.654297,256.512878 
	C1277.306152,254.671555 1274.501343,252.052139 1271.270508,250.160477 
	C1243.195801,233.723083 1215.057129,217.394592 1186.910034,201.080994 
	C1175.126709,194.251495 1163.281616,187.528305 1151.455566,180.772415 
	C1146.704346,178.058167 1141.848267,178.511642 1137.080444,180.622238 
	C1134.812256,181.626282 1132.718384,183.028534 1130.560425,184.276047 
	C1092.297241,206.394745 1054.016235,228.482925 1015.796997,250.677261 
	C1010.226562,253.912064 1006.834045,258.295715 1006.873108,265.555359 
	C1007.124207,312.204681 1007.078857,358.856323 1006.916931,405.506439 
	C1006.892822,412.448151 1009.452820,417.261200 1015.380676,420.636475 
	C1036.733154,432.794281 1058.022339,445.063354 1079.381592,457.209442 
	C1097.729126,467.643036 1116.207764,477.848114 1134.484253,488.403931 
	C1140.630859,491.953949 1146.566162,491.872681 1152.441284,488.644165 
	C1176.036743,475.677917 1199.596313,462.642944 1222.986816,449.313324 
	C1225.506470,447.877411 1228.237305,444.408173 1228.328369,441.793610 
	C1228.418579,439.201385 1225.911865,435.475250 1223.480835,434.006561 
	C1206.425537,423.702789 1189.124390,413.803589 1171.845337,403.873413 
	C1148.962524,390.722961 1126.052490,377.619446 1103.091309,364.606781 
	C1099.453613,362.545288 1097.965088,359.725769 1097.985962,355.676361 
	C1098.054321,342.347931 1098.106201,329.017853 1097.950317,315.690887 
	C1097.902100,311.565216 1099.356934,308.718353 1102.917480,306.690948 
	C1114.748657,299.954071 1126.528320,293.126526 1138.337158,286.350281 
	C1141.597168,284.479553 1144.893311,284.186920 1148.263428,286.169067 
	C1159.140259,292.566528 1169.842163,299.300110 1180.997559,305.170441 
	C1187.333984,308.504761 1189.116211,313.294250 1189.030396,319.760468 
	C1188.906616,329.088867 1188.929688,338.421204 1189.038940,347.750092 
	C1189.122559,354.889648 1194.695190,358.425323 1200.892944,354.909332 
	C1220.533325,343.767181 1240.081421,332.458160 1259.529053,320.982666 
	C1266.877563,316.646515 1273.854004,311.679474 1281.000000,307.000000 
M710.070862,576.920410 
	C710.070862,576.920410 710.045349,576.914551 709.723755,576.325989 
	C707.482239,574.939819 705.240784,573.553711 702.350403,571.833679 
	C700.106750,570.849121 697.924988,569.678406 695.609619,568.909912 
	C679.214905,563.468811 662.387512,563.796082 645.685120,566.388184 
	C637.407410,567.672852 628.981506,570.058289 622.382263,577.153442 
	C621.553223,578.085022 620.724182,579.016602 619.280640,580.248230 
	C616.939941,584.632629 613.332825,588.810059 612.573914,593.453003 
	C611.589539,599.475891 610.224609,606.100525 613.975159,612.847107 
	C613.806152,618.357056 616.901489,622.009277 621.110901,625.560120 
	C621.296082,625.841125 621.555481,626.003479 622.182373,626.599060 
	C623.086548,627.082886 623.990723,627.566711 625.269653,628.660828 
	C631.064392,630.775269 636.704163,633.722351 642.685242,634.835571 
	C656.307373,637.371033 670.170227,638.614197 683.791077,641.155334 
	C691.945496,642.676697 701.476746,643.117737 703.669861,654.770813 
	C701.745056,658.829956 699.820190,662.889160 697.250854,667.009766 
	C696.500916,667.395020 695.750977,667.780334 694.281128,668.296692 
	C691.520630,669.253357 688.760193,670.210022 685.204346,671.037598 
	C683.136353,671.413940 681.068359,671.790283 678.206421,672.036499 
	C677.137512,672.079834 676.068542,672.123169 674.098938,672.036133 
	C671.066101,672.079407 668.033203,672.122681 664.105835,672.035583 
	C659.737122,671.745972 655.368347,671.456360 650.337463,670.831421 
	C648.926819,670.538940 647.516174,670.246460 645.802856,669.403076 
	C644.817993,669.116638 643.833130,668.830139 642.306824,668.103638 
	C641.241089,667.720276 640.175354,667.336853 638.852844,666.390747 
	C637.937561,665.577393 637.022217,664.764038 635.791016,663.321594 
	C634.549927,661.230408 632.969299,659.267029 632.126038,657.026123 
	C628.363892,647.028564 628.440002,646.999939 617.521423,647.000000 
	C607.639526,647.000061 607.639526,647.000061 608.051758,657.601013 
	C608.332336,658.084229 608.612854,658.567383 608.976807,659.838867 
	C609.334839,661.296997 609.692932,662.755127 610.047607,664.909363 
	C610.997375,666.955444 611.947144,669.001526 613.170654,671.645752 
	C614.100525,672.803223 615.030334,673.960632 616.205872,675.684814 
	C616.779724,676.485291 617.353577,677.285828 618.203857,678.674744 
	C619.454285,679.487122 620.704712,680.299561 622.258423,681.726868 
	C626.172668,683.762451 630.086914,685.798035 634.637756,688.156677 
	C635.743835,688.475708 636.849915,688.794678 638.365295,689.723022 
	C640.243469,690.093262 642.121582,690.463440 644.625671,690.966003 
	C645.051453,690.992615 645.477173,691.019165 646.276123,691.636292 
	C647.184204,691.702209 648.092224,691.768127 649.832336,691.970947 
	C653.221436,692.258484 656.610535,692.546021 660.867432,692.963928 
	C662.911560,692.920471 664.955688,692.876953 667.734680,692.990356 
	C669.156372,693.273560 670.578003,693.556763 672.823181,693.927856 
	C675.882202,693.563049 678.941284,693.198181 682.821533,692.962402 
	C685.908447,692.334473 688.995300,691.706482 692.875183,691.016174 
	C696.617859,689.695007 700.360596,688.373901 704.845337,687.006714 
	C709.908569,683.293579 715.456604,680.078491 719.912781,675.741577 
	C725.531677,670.273071 725.129211,662.570801 726.447693,655.251465 
	C728.518494,643.755554 721.734314,630.073486 711.451660,625.618225 
	C697.984802,619.783508 683.737976,618.253296 669.556458,615.952942 
	C660.856323,614.541626 652.146545,612.997559 643.620605,610.812988 
	C640.832581,610.098633 637.614075,607.685059 636.328369,605.163513 
	C633.289612,599.203796 637.466370,591.591980 644.078735,589.020142 
	C654.269409,585.056519 664.932312,585.391724 675.395081,586.220581 
	C687.890259,587.210449 697.616638,592.635925 700.200256,606.496277 
	C700.455078,607.863220 702.862488,609.652954 704.408630,609.800354 
	C709.028015,610.240845 713.731018,610.191223 718.372131,609.887268 
	C721.677246,609.670654 723.437256,607.332092 722.869324,604.060181 
	C721.357117,595.348206 719.611938,586.672241 712.846802,579.392517 
	C711.923096,578.577087 710.999329,577.761597 710.070862,576.920410 
M610.740112,406.635254 
	C610.775879,391.439270 610.811646,376.243256 610.961670,360.117615 
	C610.920898,355.737701 610.880127,351.357758 610.955078,346.050018 
	C610.970642,319.930054 611.105896,293.809082 610.888855,267.691071 
	C610.850830,263.116547 610.827332,257.978394 605.746643,254.326218 
	C604.707642,253.534882 603.739929,252.620911 602.619263,251.970215 
	C578.424561,237.922089 554.212891,223.903397 529.875610,209.455170 
	C529.688232,209.152405 529.429138,209.067474 528.473816,208.955368 
	C527.670898,208.628799 526.867981,208.302216 525.707947,207.378647 
	C510.965637,198.889053 496.243103,190.364761 481.453064,181.959137 
	C479.826843,181.034912 477.813843,180.791275 475.138336,180.084534 
	C473.429993,180.123383 471.721619,180.162231 469.391235,180.068634 
	C468.891571,180.363220 468.391876,180.657791 467.184814,181.068283 
	C463.192719,183.378906 459.200623,185.689529 454.810699,188.617462 
	C448.881470,191.865723 442.952271,195.113998 436.366455,198.512222 
	C430.915070,201.760025 425.463654,205.007843 419.327667,208.343536 
	C412.882080,212.216476 406.436493,216.089401 399.280823,220.079025 
	C388.531677,226.241318 377.746277,232.341476 367.045837,238.587204 
	C359.614838,242.924622 352.300720,247.462311 344.228088,252.016418 
	C338.828247,254.678864 336.148956,259.365601 336.105988,265.040894 
	C335.939453,287.028625 336.117096,309.018951 336.048004,331.938049 
	C336.027069,355.729248 335.811035,379.523346 336.164520,403.308990 
	C336.228394,407.606781 338.631439,411.869781 340.261841,416.755005 
	C347.832611,421.360565 355.331512,426.089600 362.988953,430.546295 
	C379.481049,440.144836 396.066956,449.582062 412.591583,459.124939 
	C430.398834,469.408478 448.093445,479.892822 466.064270,489.881073 
	C468.806244,491.405090 472.773499,490.724579 476.789917,490.969391 
	C477.201385,490.910431 477.612823,490.851471 478.625702,490.929871 
	C479.104462,490.637604 479.583191,490.345337 479.999939,490.005188 
	C479.999939,490.005188 480.054230,490.062714 480.765564,489.967285 
	C487.524994,486.005280 494.284454,482.043274 501.687195,477.793640 
	C510.159485,472.879028 518.631775,467.964417 527.735413,462.757294 
	C531.505676,460.544128 535.276001,458.330994 539.681641,455.809723 
	C544.167053,453.223389 548.652466,450.637054 553.752808,447.741394 
	C557.167603,445.766602 560.582397,443.791779 564.662964,441.673309 
	C568.796448,439.162628 572.929871,436.651947 577.780212,434.056213 
	C585.670288,429.452057 593.508545,424.755646 601.468994,420.276550 
	C606.657410,417.357208 610.282471,413.602631 610.740112,406.635254 
M1170.989990,322.154938 
	C1169.480591,320.370728 1168.281006,318.108917 1166.404053,316.891266 
	C1160.633667,313.147797 1154.795654,309.391632 1148.583008,306.503235 
	C1146.016235,305.309967 1141.966675,305.316986 1139.398438,306.512085 
	C1133.186768,309.402557 1127.507935,313.417084 1121.497070,316.768188 
	C1118.472656,318.454315 1116.804321,320.452667 1116.928467,324.173950 
	C1117.172729,331.493286 1116.691284,338.847168 1117.179321,346.141998 
	C1117.336426,348.488190 1119.051636,351.497314 1120.995117,352.813751 
	C1126.951538,356.848297 1133.192261,360.573364 1139.689209,363.642181 
	C1142.108887,364.785065 1145.988770,364.723480 1148.426758,363.570312 
	C1154.625610,360.638336 1160.319946,356.659698 1166.348877,353.340637 
	C1169.570801,351.566803 1171.222900,349.419800 1171.079346,345.514832 
	C1170.804199,338.030884 1170.998169,330.529755 1170.989990,322.154938 
M814.424744,576.000305 
	C823.740356,575.470337 831.104004,571.190308 834.498352,562.628174 
	C837.687317,554.583923 837.210205,546.135132 831.369019,538.884949 
	C824.881897,530.833191 816.254944,529.448364 806.835938,531.690308 
	C795.812561,534.314331 789.320618,544.845276 791.149109,557.226685 
	C792.547302,566.694763 800.643921,575.883850 814.424744,576.000305 
z"/>
<path fill="#333333" opacity="1.000000" stroke="none" 
	d="
M867.539368,0.999999 
	C868.886658,2.090851 869.553223,3.573414 870.692932,4.213994 
	C888.943359,14.471797 907.259094,24.613407 925.547974,34.802910 
	C930.324707,37.464233 935.109680,40.116661 939.801270,42.923035 
	C944.190857,45.548733 946.021790,49.625675 946.002380,54.673397 
	C945.966431,64.006454 945.999634,73.339767 945.999695,82.672974 
	C946.000183,190.338242 945.944153,298.003601 946.112793,405.668610 
	C946.125366,413.715576 943.546448,419.113983 936.442871,423.137909 
	C912.021667,436.971619 887.806946,451.169952 863.511414,465.225677 
	C848.707947,473.789948 833.865173,482.287079 819.110168,490.933868 
	C811.964172,495.121613 805.036377,495.106506 797.896484,490.949768 
	C771.035889,475.311768 744.134583,459.743774 717.242188,444.160461 
	C704.453918,436.750061 691.678101,429.317535 678.842773,421.989319 
	C673.402893,418.883514 670.939453,414.430725 670.952332,408.117310 
	C671.044678,362.784760 671.364868,317.446899 670.743103,272.122681 
	C670.588379,260.846802 675.335693,254.760910 684.349731,249.677414 
	C709.975098,235.225830 735.362000,220.351669 760.862671,205.678574 
	C774.261475,197.968918 787.642883,190.225433 801.155640,182.719421 
	C805.945496,180.058792 811.151306,180.173370 816.010559,182.825150 
	C825.347290,187.920319 834.543518,193.274811 843.919556,198.294846 
	C846.058594,199.440079 849.852600,200.938126 850.846008,200.033890 
	C852.689453,198.355896 853.865479,195.029785 853.873657,192.385483 
	C854.039062,138.720016 853.998962,85.053925 853.999939,31.387949 
	C854.000061,25.554691 853.753723,19.707436 854.084167,13.892961 
	C854.314758,9.835259 855.335510,5.822466 856.001587,1.394806 
	C859.692932,1.000000 863.385803,1.000000 867.539368,0.999999 
M853.809082,360.685883 
	C853.861145,345.867096 854.115662,331.043396 853.759644,316.234406 
	C853.702393,313.852631 851.119019,311.367920 849.321350,309.255890 
	C848.317139,308.075989 846.518555,307.579193 845.091797,306.750732 
	C834.035156,300.330536 823.042725,293.794739 811.862488,287.597656 
	C810.171387,286.660309 807.150391,286.445709 805.525696,287.330719 
	C792.699097,294.317596 779.964294,301.490509 767.461853,309.037933 
	C765.340393,310.318604 763.278625,313.636536 763.213623,316.067413 
	C762.822021,330.711853 762.905823,345.374054 763.162964,360.024445 
	C763.195923,361.900818 764.695129,364.514496 766.300537,365.478119 
	C777.966614,372.480652 790.046204,378.811951 801.541565,386.073425 
	C806.667969,389.311707 810.603210,388.693756 815.257935,385.886963 
	C823.649292,380.826996 832.300354,376.193146 840.630432,371.038055 
	C845.182007,368.221313 849.298096,364.700989 853.809082,360.685883 
z"/>
<path fill="#333333" opacity="1.000000" stroke="none" 
	d="
M0.999999,255.468658 
	C7.816324,250.680023 14.501101,246.133713 21.473013,242.081421 
	C44.744621,228.555252 68.120010,215.207657 91.453735,201.788330 
	C102.543427,195.410583 114.098183,189.704147 124.584465,182.453079 
	C135.116608,175.170303 143.930542,177.287964 153.906570,183.306351 
	C173.666641,195.227341 193.890594,206.378494 213.901505,217.884903 
	C231.457947,227.979965 249.003601,238.094116 266.515747,248.265717 
	C272.857849,251.949402 276.145599,257.066803 276.118195,264.933594 
	C275.903259,326.741669 276.003693,388.550812 275.989960,450.359650 
	C275.988464,457.065552 274.382660,459.909637 269.646515,460.453217 
	C267.536072,460.695435 265.007446,460.006378 263.108276,458.949799 
	C247.275223,450.141418 231.535110,441.165619 215.787262,432.204651 
	C207.851395,427.688873 199.968781,423.079590 192.040939,418.549591 
	C186.670242,415.480804 183.952255,411.030182 183.969925,404.714355 
	C184.048187,376.725647 183.933380,348.736389 184.040543,320.747864 
	C184.072510,312.403381 181.433990,306.075531 173.608322,301.955536 
	C164.209503,297.007324 155.243469,291.243713 145.936844,286.110931 
	C141.219910,283.509430 136.204041,282.976929 131.195145,285.903595 
	C121.304688,291.682526 111.365288,297.378113 101.422188,303.066315 
	C95.291252,306.573700 92.917267,311.877441 92.948349,318.836151 
	C93.072624,346.657867 92.864822,374.481567 93.080246,402.302185 
	C93.142754,410.373871 89.940674,415.687958 82.955734,419.624542 
	C60.655888,432.192291 38.517021,445.046295 16.349823,457.848358 
	C11.447693,460.679413 6.664457,462.419067 1.363408,458.024780 
	C1.000000,390.645782 1.000000,323.291534 0.999999,255.468658 
z"/>
<path fill="#333333" opacity="1.000000" stroke="none" 
	d="
M1281.000000,306.531342 
	C1273.854004,311.679474 1266.877563,316.646515 1259.529053,320.982666 
	C1240.081421,332.458160 1220.533325,343.767181 1200.892944,354.909332 
	C1194.695190,358.425323 1189.122559,354.889648 1189.038940,347.750092 
	C1188.929688,338.421204 1188.906616,329.088867 1189.030396,319.760468 
	C1189.116211,313.294250 1187.333984,308.504761 1180.997559,305.170441 
	C1169.842163,299.300110 1159.140259,292.566528 1148.263428,286.169067 
	C1144.893311,284.186920 1141.597168,284.479553 1138.337158,286.350281 
	C1126.528320,293.126526 1114.748657,299.954071 1102.917480,306.690948 
	C1099.356934,308.718353 1097.902100,311.565216 1097.950317,315.690887 
	C1098.106201,329.017853 1098.054321,342.347931 1097.985962,355.676361 
	C1097.965088,359.725769 1099.453613,362.545288 1103.091309,364.606781 
	C1126.052490,377.619446 1148.962524,390.722961 1171.845337,403.873413 
	C1189.124390,413.803589 1206.425537,423.702789 1223.480835,434.006561 
	C1225.911865,435.475250 1228.418579,439.201385 1228.328369,441.793610 
	C1228.237305,444.408173 1225.506470,447.877411 1222.986816,449.313324 
	C1199.596313,462.642944 1176.036743,475.677917 1152.441284,488.644165 
	C1146.566162,491.872681 1140.630859,491.953949 1134.484253,488.403931 
	C1116.207764,477.848114 1097.729126,467.643036 1079.381592,457.209442 
	C1058.022339,445.063354 1036.733154,432.794281 1015.380676,420.636475 
	C1009.452820,417.261200 1006.892822,412.448151 1006.916931,405.506439 
	C1007.078857,358.856323 1007.124207,312.204681 1006.873108,265.555359 
	C1006.834045,258.295715 1010.226562,253.912064 1015.796997,250.677261 
	C1054.016235,228.482925 1092.297241,206.394745 1130.560425,184.276047 
	C1132.718384,183.028534 1134.812256,181.626282 1137.080444,180.622238 
	C1141.848267,178.511642 1146.704346,178.058167 1151.455566,180.772415 
	C1163.281616,187.528305 1175.126709,194.251495 1186.910034,201.080994 
	C1215.057129,217.394592 1243.195801,233.723083 1271.270508,250.160477 
	C1274.501343,252.052139 1277.306152,254.671555 1280.654297,256.976746 
	C1281.000000,273.354218 1281.000000,289.708466 1281.000000,306.531342 
z"/>
<path fill="#689F63" opacity="1.000000" stroke="none" 
	d="
M624.468262,785.000000 
	C621.544067,783.094482 619.249146,780.921387 616.604309,779.329834 
	C605.227783,772.484070 593.727051,765.844910 582.336243,759.022522 
	C581.038330,758.245178 580.147095,756.789062 579.067261,755.647705 
	C580.267944,754.758301 581.364685,753.651611 582.687988,753.018616 
	C587.418823,750.755737 592.333679,748.856628 596.963684,746.412292 
	C599.640320,744.999207 601.740417,745.102783 604.245667,746.619873 
	C612.236877,751.459290 620.485596,755.893127 628.299133,760.997620 
	C631.952637,763.384460 634.705627,763.518616 638.423035,761.316650 
	C656.613586,750.541504 674.909851,739.943298 693.231323,729.391052 
	C711.699829,718.754150 730.278870,708.308228 748.685730,697.566589 
	C750.265503,696.644714 751.853455,694.134094 751.860718,692.355042 
	C752.036743,649.192810 752.041443,606.029480 751.859802,562.867310 
	C751.851440,560.880615 750.328979,558.062683 748.654541,557.052368 
	C734.474976,548.496704 720.098511,540.267273 705.776367,531.948059 
	C689.612854,522.559143 673.445801,513.176208 657.277283,503.795898 
	C650.469666,499.846375 643.754150,495.716827 636.769531,492.109192 
	C635.110718,491.252350 632.134766,491.438263 630.450073,492.375946 
	C616.120117,500.352081 601.939392,508.596710 587.732239,516.792664 
	C573.240295,525.152954 558.779053,533.566650 544.284973,541.923157 
	C535.478882,547.000305 526.558838,551.886963 517.884338,557.177795 
	C516.418091,558.072083 515.127258,560.580261 515.121033,562.347656 
	C514.969238,605.510071 514.985413,648.673218 515.075989,691.835938 
	C515.079041,693.294067 515.746216,695.488708 516.811707,696.093933 
	C529.322632,703.201172 541.808716,710.386169 554.636047,716.890686 
	C563.268921,721.268250 575.189331,714.246582 575.109131,702.253479 
	C574.827148,660.092346 574.998474,617.928101 575.000671,575.765076 
	C575.001099,568.092407 575.096069,568.005432 582.958923,568.000549 
	C585.958679,567.998657 588.977112,568.212585 591.953613,567.949402 
	C596.077576,567.584717 597.924316,569.657410 597.929443,573.363037 
	C597.988770,616.192566 598.041443,659.022461 597.870361,701.851379 
	C597.849609,707.049011 597.130005,712.425110 595.660889,717.401672 
	C591.283508,732.229980 581.306824,738.562439 566.347229,739.988220 
	C551.209473,741.430908 538.542358,734.749268 526.082458,727.517212 
	C518.998413,723.405457 511.966492,719.202515 504.949280,714.977173 
	C496.541443,709.914368 493.087311,701.979675 493.058075,692.626160 
	C492.925262,650.130249 493.271576,607.630920 492.844666,565.138916 
	C492.704773,551.216614 498.684509,542.371155 510.427948,535.754700 
	C536.277954,521.190369 561.816772,506.074127 587.497803,491.209503 
	C598.566345,484.802887 609.527710,478.188873 620.811768,472.184143 
	C628.712341,467.979950 637.203796,467.245483 645.353577,471.812256 
	C659.370300,479.666595 673.275635,487.720398 687.200439,495.737854 
	C703.541809,505.146698 719.888733,514.546692 736.165771,524.066040 
	C745.783325,529.690674 755.469543,535.238159 764.748047,541.388794 
	C771.296082,545.729370 774.012146,552.535645 774.008972,560.411743 
	C773.991028,604.741272 774.052917,649.070862 773.959900,693.400208 
	C773.939026,703.337646 769.684082,710.973022 760.824768,716.071106 
	C733.252563,731.937439 705.786987,747.988708 678.251953,763.919678 
	C666.374023,770.791870 654.427124,777.544739 642.755798,784.675903 
	C636.978821,785.000000 630.957703,785.000000 624.468262,785.000000 
z"/>
<path fill="#3E863D" opacity="1.000000" stroke="none" 
	d="
M476.174072,491.063660 
	C472.773499,490.724579 468.806244,491.405090 466.064270,489.881073 
	C448.093445,479.892822 430.398834,469.408478 412.591583,459.124939 
	C396.066956,449.582062 379.481049,440.144836 362.988953,430.546295 
	C355.331512,426.089600 347.832611,421.360565 340.205627,416.097900 
	C341.256165,413.217102 342.247711,410.926910 343.487640,408.780182 
	C354.623810,389.500031 365.803650,370.245056 377.186646,350.721039 
	C378.329712,348.927429 379.198303,347.356232 380.195038,345.871033 
	C383.068909,341.588654 385.994537,337.340973 389.059784,333.387939 
	C392.485718,339.452209 395.751709,345.208160 399.133575,351.296265 
	C405.426544,362.779449 411.603638,373.930481 417.895569,385.420715 
	C423.604126,395.865997 429.197876,405.972137 434.903198,416.418457 
	C437.917389,422.169373 440.729889,427.630859 443.743530,432.978973 
	C448.378967,441.205261 453.152557,449.353668 457.914551,457.874115 
	C464.032440,469.163300 470.103271,480.113464 476.174072,491.063660 
z"/>
<path fill="#689F63" opacity="1.000000" stroke="none" 
	d="
M713.108032,579.957886 
	C719.611938,586.672241 721.357117,595.348206 722.869324,604.060181 
	C723.437256,607.332092 721.677246,609.670654 718.372131,609.887268 
	C713.731018,610.191223 709.028015,610.240845 704.408630,609.800354 
	C702.862488,609.652954 700.455078,607.863220 700.200256,606.496277 
	C697.616638,592.635925 687.890259,587.210449 675.395081,586.220581 
	C664.932312,585.391724 654.269409,585.056519 644.078735,589.020142 
	C637.466370,591.591980 633.289612,599.203796 636.328369,605.163513 
	C637.614075,607.685059 640.832581,610.098633 643.620605,610.812988 
	C652.146545,612.997559 660.856323,614.541626 669.556458,615.952942 
	C683.737976,618.253296 697.984802,619.783508 711.451660,625.618225 
	C721.734314,630.073486 728.518494,643.755554 726.447693,655.251465 
	C725.129211,662.570801 725.531677,670.273071 719.912781,675.741577 
	C715.456604,680.078491 709.908569,683.293579 704.247437,686.800171 
	C699.202942,683.527100 694.006531,685.541931 692.082214,691.078491 
	C688.995300,691.706482 685.908447,692.334473 682.278931,692.569336 
	C677.614563,688.664368 674.257263,689.238037 671.999695,693.840027 
	C670.578003,693.556763 669.156372,693.273560 667.225708,692.610718 
	C662.822937,688.207092 661.819214,688.297119 659.999634,692.833557 
	C656.610535,692.546021 653.221436,692.258484 649.355591,691.664307 
	C647.886902,691.253662 646.894897,691.149719 645.902954,691.045776 
	C645.477173,691.019165 645.051453,690.992615 644.216248,690.589355 
	C642.474915,686.554016 640.675110,685.386536 637.955994,689.113708 
	C636.849915,688.794678 635.743835,688.475708 634.382812,687.680664 
	C633.719849,682.321106 628.344299,679.630615 621.955078,681.112000 
	C620.704712,680.299561 619.454285,679.487122 618.151917,678.048828 
	C618.239746,676.079163 618.379517,674.735413 618.519348,673.391663 
	C618.202454,673.288086 617.885559,673.184509 617.568665,673.080933 
	C617.032532,673.760010 616.496399,674.439026 615.960205,675.118103 
	C615.030334,673.960632 614.100525,672.803223 613.269775,671.115295 
	C615.656128,666.693970 614.354736,664.671875 610.051025,664.213257 
	C609.692932,662.755127 609.334839,661.296997 608.999756,659.251099 
	C608.737122,658.108826 608.451538,657.554443 608.165955,657.000000 
	C607.639526,647.000061 607.639526,647.000061 617.521423,647.000000 
	C628.440002,646.999939 628.363892,647.028564 632.126038,657.026123 
	C632.969299,659.267029 634.549927,661.230408 635.697632,663.820190 
	C635.183472,665.501404 634.762634,666.684082 634.341736,667.866699 
	C635.931030,667.562317 637.520325,667.257874 639.109619,666.953491 
	C640.175354,667.336853 641.241089,667.720276 642.381714,668.570679 
	C642.506958,669.989929 642.557251,670.942261 642.607544,671.894531 
	C643.773560,671.247681 644.939514,670.600830 646.105530,669.953979 
	C647.516174,670.246460 648.926819,670.538940 650.753418,671.347900 
	C654.673706,676.735779 662.276550,676.901550 665.000366,672.165955 
	C668.033203,672.122681 671.066101,672.079407 674.607727,672.403809 
	C675.846375,673.509216 676.576233,674.247009 677.306091,674.984741 
	C677.870850,674.045349 678.435608,673.105957 679.000366,672.166565 
	C681.068359,671.790283 683.136353,671.413940 685.673584,671.430298 
	C686.975342,674.972290 689.139648,674.689209 691.526001,673.946045 
	C694.421265,673.044434 696.027344,671.406311 695.001038,668.165649 
	C695.750977,667.780334 696.500916,667.395020 697.855713,667.149292 
	C702.320679,669.851562 704.105469,667.109192 705.143250,664.219543 
	C706.374634,660.790527 709.412720,656.781189 703.894104,654.045532 
	C701.476746,643.117737 691.945496,642.676697 683.791077,641.155334 
	C670.170227,638.614197 656.307373,637.371033 642.685242,634.835571 
	C636.704163,633.722351 631.064392,630.775269 625.182617,628.116577 
	C624.026733,627.063904 622.957947,626.555603 621.889160,626.047241 
	C621.555481,626.003479 621.296082,625.841125 621.098999,625.005371 
	C620.116150,619.484497 618.548096,614.865112 613.885132,612.041931 
	C610.224609,606.100525 611.589539,599.475891 612.573914,593.453003 
	C613.332825,588.810059 616.939941,584.632629 619.840515,580.245422 
	C625.333435,582.231812 623.317749,578.932129 622.952942,576.888977 
	C628.981506,570.058289 637.407410,567.672852 645.685120,566.388184 
	C662.387512,563.796082 679.214905,563.468811 695.609619,568.909912 
	C697.924988,569.678406 700.106750,570.849121 702.745239,572.349304 
	C704.002563,576.669006 706.911072,576.984314 710.045349,576.914551 
	C710.045349,576.914551 710.070862,576.920410 710.156860,577.254028 
	C711.197876,578.377747 712.152954,579.167786 713.108032,579.957886 
z"/>
<path fill="#639B58" opacity="1.000000" stroke="none" 
	d="
M539.046326,456.117859 
	C535.276001,458.330994 531.505676,460.544128 527.286194,462.565826 
	C526.889343,459.561035 526.986877,456.747711 526.987305,453.934387 
	C526.995728,395.645752 527.072571,337.356842 526.864197,279.068939 
	C526.844360,273.518066 526.276062,267.327393 523.804016,262.550873 
	C517.158997,249.711243 509.343964,237.477127 501.838989,224.692917 
	C499.270874,220.205063 496.909210,215.995804 494.432526,211.855347 
	C489.660431,203.877518 484.823273,195.938583 479.917725,187.651947 
	C478.541687,184.957581 477.260956,182.594772 475.980225,180.231979 
	C477.813843,180.791275 479.826843,181.034912 481.453064,181.959137 
	C496.243103,190.364761 510.965637,198.889053 525.606934,207.794617 
	C521.515076,212.006287 525.904785,214.258499 527.471130,216.411819 
	C543.820801,238.888123 560.375977,261.215393 576.955139,283.523834 
	C579.422485,286.843750 582.308472,289.852509 584.907959,293.346985 
	C581.103699,301.055542 577.392212,308.422333 573.443909,316.011108 
	C571.810791,318.169312 570.414551,320.105560 568.773804,321.810089 
	C559.365051,309.652222 550.200928,297.726013 541.036743,285.799835 
	C540.373291,285.957153 539.709778,286.114471 539.046326,286.271790 
	C539.046326,342.887146 539.046326,399.502533 539.046326,456.117859 
z"/>
<path fill="#75AC63" opacity="1.000000" stroke="none" 
	d="
M475.559265,180.158264 
	C477.260956,182.594772 478.541687,184.957581 479.914734,188.122360 
	C480.022766,289.303802 480.038513,389.683258 480.054230,490.062714 
	C480.054230,490.062714 479.999939,490.005188 479.767883,490.097382 
	C479.031952,490.390564 478.528107,490.591553 478.024292,490.792542 
	C477.612823,490.851471 477.201385,490.910431 476.481995,491.016541 
	C470.103271,480.113464 464.032440,469.163300 458.013947,457.419861 
	C458.377350,453.325043 458.958038,450.023560 458.960022,446.721771 
	C459.010284,363.667023 459.000122,280.612244 458.996185,197.557480 
	C458.996124,195.893661 459.404480,194.032761 458.798370,192.616394 
	C458.056549,190.883011 456.444366,189.522110 455.208527,188.000153 
	C459.200623,185.689529 463.192719,183.378906 467.813171,180.944519 
	C468.965454,180.614212 469.489380,180.407639 470.013275,180.201080 
	C471.721619,180.162231 473.429993,180.123383 475.559265,180.158264 
z"/>
<path fill="#70A761" opacity="1.000000" stroke="none" 
	d="
M480.409912,490.015015 
	C480.038513,389.683258 480.022766,289.303802 480.010071,188.453949 
	C484.823273,195.938583 489.660431,203.877518 494.432526,211.855347 
	C496.909210,215.995804 499.270874,220.205063 501.730164,225.047821 
	C501.850525,230.193176 501.989502,234.673950 501.990356,239.154739 
	C502.003937,311.483826 502.027313,383.812927 501.958221,456.141968 
	C501.951233,463.455322 501.362610,470.768188 501.043915,478.081268 
	C494.284454,482.043274 487.524994,486.005280 480.409912,490.015015 
z"/>
<path fill="#69A25D" opacity="1.000000" stroke="none" 
	d="
M501.365540,477.937439 
	C501.362610,470.768188 501.951233,463.455322 501.958221,456.141968 
	C502.027313,383.812927 502.003937,311.483826 501.990356,239.154739 
	C501.989502,234.673950 501.850525,230.193176 501.884644,225.357498 
	C509.343964,237.477127 517.158997,249.711243 523.804016,262.550873 
	C526.276062,267.327393 526.844360,273.518066 526.864197,279.068939 
	C527.072571,337.356842 526.995728,395.645752 526.987305,453.934387 
	C526.986877,456.747711 526.889343,459.561035 526.970520,462.712097 
	C518.631775,467.964417 510.159485,472.879028 501.365540,477.937439 
z"/>
<path fill="#78B361" opacity="1.000000" stroke="none" 
	d="
M455.009613,188.308807 
	C456.444366,189.522110 458.056549,190.883011 458.798370,192.616394 
	C459.404480,194.032761 458.996124,195.893661 458.996185,197.557480 
	C459.000122,280.612244 459.010284,363.667023 458.960022,446.721771 
	C458.958038,450.023560 458.377350,453.325043 457.966919,457.080872 
	C453.152557,449.353668 448.378967,441.205261 443.743530,432.978973 
	C440.729889,427.630859 437.917389,422.169373 435.208984,416.170197 
	C435.935333,412.895508 436.928619,410.209900 436.932220,407.522980 
	C437.025146,337.802826 437.015228,268.082550 437.023071,198.362274 
	C442.952271,195.113998 448.881470,191.865723 455.009613,188.308807 
z"/>
<path fill="#6BBE48" opacity="1.000000" stroke="none" 
	d="
M399.017700,350.964111 
	C395.751709,345.208160 392.485718,339.452209 388.904663,333.081787 
	C379.491486,315.866302 370.348846,299.289490 361.311920,282.655243 
	C355.769043,272.452484 350.388092,262.161774 344.934418,251.910522 
	C352.300720,247.462311 359.614838,242.924622 367.045837,238.587204 
	C377.746277,232.341476 388.531677,226.241318 399.637604,220.491882 
	C399.996124,261.303162 400.018372,301.701660 399.957245,342.100006 
	C399.952789,345.055176 399.344971,348.009430 399.017700,350.964111 
z"/>
<path fill="#75B75A" opacity="1.000000" stroke="none" 
	d="
M436.694763,198.437256 
	C437.015228,268.082550 437.025146,337.802826 436.932220,407.522980 
	C436.928619,410.209900 435.935333,412.895508 435.097412,415.829987 
	C429.197876,405.972137 423.604126,395.865997 418.202942,385.172333 
	C418.930115,381.898956 419.926666,379.213959 419.931183,376.527222 
	C420.025726,320.436798 420.007904,264.346222 420.012268,208.255661 
	C425.463654,205.007843 430.915070,201.760025 436.694763,198.437256 
z"/>
<path fill="#71BA52" opacity="1.000000" stroke="none" 
	d="
M419.669983,208.299591 
	C420.007904,264.346222 420.025726,320.436798 419.931183,376.527222 
	C419.926666,379.213959 418.930115,381.898956 418.088135,384.833130 
	C411.603638,373.930481 405.426544,362.779449 399.133575,351.296265 
	C399.344971,348.009430 399.952789,345.055176 399.957245,342.100006 
	C400.018372,301.701660 399.996124,261.303162 399.992645,220.433533 
	C406.436493,216.089401 412.882080,212.216476 419.669983,208.299591 
z"/>
<path fill="#56994D" opacity="1.000000" stroke="none" 
	d="
M344.581238,251.963470 
	C350.388092,262.161774 355.769043,272.452484 361.311920,282.655243 
	C370.348846,299.289490 379.491486,315.866302 388.744690,332.773499 
	C385.994537,337.340973 383.068909,341.588654 380.195038,345.871033 
	C379.198303,347.356232 378.329712,348.927429 376.914215,350.527924 
	C364.143433,344.243988 351.872284,337.869446 339.557129,331.581116 
	C338.583344,331.083893 337.303925,331.185211 336.166565,331.008331 
	C336.117096,309.018951 335.939453,287.028625 336.105988,265.040894 
	C336.148956,259.365601 338.828247,254.678864 344.581238,251.963470 
z"/>
<path fill="#488C45" opacity="1.000000" stroke="none" 
	d="
M569.018311,322.041779 
	C570.414551,320.105560 571.810791,318.169312 573.693237,316.292023 
	C575.753784,317.547516 577.196228,318.998016 578.925476,319.896301 
	C586.005493,323.573914 592.988892,327.538361 600.362732,330.519623 
	C607.037903,333.218475 611.590881,336.580994 610.214905,344.590149 
	C610.088013,345.328491 610.615662,346.179291 610.839355,346.977844 
	C610.880127,351.357758 610.920898,355.737701 610.773438,360.911682 
	C610.126526,363.419556 609.667847,365.133331 609.055969,367.419769 
	C607.179504,366.720276 605.650757,366.258301 604.214539,365.595917 
	C598.648926,363.029266 593.200256,360.180969 587.522522,357.899170 
	C585.250916,356.986267 582.498779,357.269287 579.726990,356.822021 
	C574.423523,354.736877 576.126587,359.102081 576.114868,360.779327 
	C575.960693,382.933258 575.986816,405.088806 576.066772,427.243561 
	C576.075073,429.543945 576.715942,431.842072 577.063293,434.141235 
	C572.929871,436.651947 568.796448,439.162628 564.269653,441.340637 
	C563.584717,437.870056 563.045959,434.732666 563.039612,431.594177 
	C562.976318,400.496826 562.978577,369.399170 563.044678,338.301819 
	C563.049866,335.853699 563.673340,333.406891 564.223267,330.703308 
	C565.964233,327.645386 567.491272,324.843597 569.018311,322.041779 
z"/>
<path fill="#689F63" opacity="1.000000" stroke="none" 
	d="
M1170.993652,322.595337 
	C1170.998169,330.529755 1170.804199,338.030884 1171.079346,345.514832 
	C1171.222900,349.419800 1169.570801,351.566803 1166.348877,353.340637 
	C1160.319946,356.659698 1154.625610,360.638336 1148.426758,363.570312 
	C1145.988770,364.723480 1142.108887,364.785065 1139.689209,363.642181 
	C1133.192261,360.573364 1126.951538,356.848297 1120.995117,352.813751 
	C1119.051636,351.497314 1117.336426,348.488190 1117.179321,346.141998 
	C1116.691284,338.847168 1117.172729,331.493286 1116.928467,324.173950 
	C1116.804321,320.452667 1118.472656,318.454315 1121.497070,316.768188 
	C1127.507935,313.417084 1133.186768,309.402557 1139.398438,306.512085 
	C1141.966675,305.316986 1146.016235,305.309967 1148.583008,306.503235 
	C1154.795654,309.391632 1160.633667,313.147797 1166.404053,316.891266 
	C1168.281006,318.108917 1169.480591,320.370728 1170.993652,322.595337 
z"/>
<path fill="#699F5C" opacity="1.000000" stroke="none" 
	d="
M585.000793,293.005188 
	C582.308472,289.852509 579.422485,286.843750 576.955139,283.523834 
	C560.375977,261.215393 543.820801,238.888123 527.471130,216.411819 
	C525.904785,214.258499 521.515076,212.006287 525.785522,208.093109 
	C526.867981,208.302216 527.670898,208.628799 528.926514,209.204971 
	C529.572815,209.617889 529.781250,209.759369 530.004456,209.878998 
	C554.212891,223.903397 578.424561,237.922089 602.619263,251.970215 
	C603.739929,252.620911 604.707642,253.534882 605.772949,254.948914 
	C598.866394,268.049469 591.933594,280.527344 585.000793,293.005188 
z"/>
<path fill="#5A9752" opacity="1.000000" stroke="none" 
	d="
M568.773804,321.810089 
	C567.491272,324.843597 565.964233,327.645386 564.107544,330.378113 
	C560.428101,324.612823 557.078125,318.916595 553.728210,313.220398 
	C553.096558,313.452972 552.464966,313.685516 551.833313,313.918091 
	C551.558228,315.620667 551.044983,317.322937 551.043091,319.025818 
	C550.997803,359.932220 550.975708,400.838715 551.097412,441.744781 
	C551.103638,443.848785 552.427490,445.948853 553.137939,448.050720 
	C548.652466,450.637054 544.167053,453.223389 539.364014,455.963806 
	C539.046326,399.502533 539.046326,342.887146 539.046326,286.271790 
	C539.709778,286.114471 540.373291,285.957153 541.036743,285.799835 
	C550.200928,297.726013 559.365051,309.652222 568.773804,321.810089 
z"/>
<path fill="#58A548" opacity="1.000000" stroke="none" 
	d="
M336.107300,331.473206 
	C337.303925,331.185211 338.583344,331.083893 339.557129,331.581116 
	C351.872284,337.869446 364.143433,344.243988 376.698242,350.789612 
	C365.803650,370.245056 354.623810,389.500031 343.487640,408.780182 
	C342.247711,410.926910 341.256165,413.217102 340.052002,415.794800 
	C338.631439,411.869781 336.228394,407.606781 336.164520,403.308990 
	C335.811035,379.523346 336.027069,355.729248 336.107300,331.473206 
z"/>
<path fill="#3F873E" opacity="1.000000" stroke="none" 
	d="
M584.907959,293.346985 
	C591.933594,280.527344 598.866394,268.049469 605.939697,255.244904 
	C610.827332,257.978394 610.850830,263.116547 610.888855,267.691071 
	C611.105896,293.809082 610.970642,319.930054 610.897217,346.513916 
	C610.615662,346.179291 610.088013,345.328491 610.214905,344.590149 
	C611.590881,336.580994 607.037903,333.218475 600.362732,330.519623 
	C592.988892,327.538361 586.005493,323.573914 578.925476,319.896301 
	C577.196228,318.998016 575.753784,317.547516 573.930176,316.070038 
	C577.392212,308.422333 581.103699,301.055542 584.907959,293.346985 
z"/>
<path fill="#52924C" opacity="1.000000" stroke="none" 
	d="
M553.445312,447.896057 
	C552.427490,445.948853 551.103638,443.848785 551.097412,441.744781 
	C550.975708,400.838715 550.997803,359.932220 551.043091,319.025818 
	C551.044983,317.322937 551.558228,315.620667 551.833313,313.918091 
	C552.464966,313.685516 553.096558,313.452972 553.728210,313.220398 
	C557.078125,318.916595 560.428101,324.612823 563.893738,330.634247 
	C563.673340,333.406891 563.049866,335.853699 563.044678,338.301819 
	C562.978577,369.399170 562.976318,400.496826 563.039612,431.594177 
	C563.045959,434.732666 563.584717,437.870056 563.936768,441.412476 
	C560.582397,443.791779 557.167603,445.766602 553.445312,447.896057 
z"/>
<path fill="#3F873E" opacity="1.000000" stroke="none" 
	d="
M577.421753,434.098724 
	C576.715942,431.842072 576.075073,429.543945 576.066772,427.243561 
	C575.986816,405.088806 575.960693,382.933258 576.114868,360.779327 
	C576.126587,359.102081 574.423523,354.736877 579.849731,357.149597 
	C589.237427,373.256531 598.246521,388.860107 607.328125,404.421356 
	C607.965454,405.513428 609.138916,406.292633 610.063049,407.217316 
	C610.282471,413.602631 606.657410,417.357208 601.468994,420.276550 
	C593.508545,424.755646 585.670288,429.452057 577.421753,434.098724 
z"/>
<path fill="#50904C" opacity="1.000000" stroke="none" 
	d="
M610.401611,406.926270 
	C609.138916,406.292633 607.965454,405.513428 607.328125,404.421356 
	C598.246521,388.860107 589.237427,373.256531 580.088074,357.335571 
	C582.498779,357.269287 585.250916,356.986267 587.522522,357.899170 
	C593.200256,360.180969 598.648926,363.029266 604.214539,365.595917 
	C605.650757,366.258301 607.179504,366.720276 609.055969,367.419769 
	C609.667847,365.133331 610.126526,363.419556 610.716309,361.376526 
	C610.811646,376.243256 610.775879,391.439270 610.401611,406.926270 
z"/>
<path fill="#689F63" opacity="1.000000" stroke="none" 
	d="
M813.981689,576.000244 
	C800.643921,575.883850 792.547302,566.694763 791.149109,557.226685 
	C789.320618,544.845276 795.812561,534.314331 806.835938,531.690308 
	C816.254944,529.448364 824.881897,530.833191 831.369019,538.884949 
	C837.210205,546.135132 837.687317,554.583923 834.498352,562.628174 
	C831.104004,571.190308 823.740356,575.470337 813.981689,576.000244 
M818.644104,570.758972 
	C831.999390,565.612183 834.446411,552.582275 829.145203,544.202515 
	C823.878967,535.878052 813.795044,532.882263 804.776672,537.659424 
	C796.752502,541.910034 792.917480,552.200195 797.609558,561.219666 
	C801.987915,569.636108 809.079895,571.864075 818.644104,570.758972 
z"/>
<path fill="#689F63" opacity="1.000000" stroke="none" 
	d="
M703.781982,654.408203 
	C709.412720,656.781189 706.374634,660.790527 705.143250,664.219543 
	C704.105469,667.109192 702.320679,669.851562 698.177979,667.118591 
	C699.820190,662.889160 701.745056,658.829956 703.781982,654.408203 
z"/>
<path fill="#689F63" opacity="1.000000" stroke="none" 
	d="
M622.106750,681.419434 
	C628.344299,679.630615 633.719849,682.321106 634.064453,687.519043 
	C630.086914,685.798035 626.172668,683.762451 622.106750,681.419434 
z"/>
<path fill="#689F63" opacity="1.000000" stroke="none" 
	d="
M664.553101,672.100769 
	C662.276550,676.901550 654.673706,676.735779 651.084473,671.515625 
	C655.368347,671.456360 659.737122,671.745972 664.553101,672.100769 
z"/>
<path fill="#689F63" opacity="1.000000" stroke="none" 
	d="
M692.478699,691.047363 
	C694.006531,685.541931 699.202942,683.527100 703.876465,686.823120 
	C700.360596,688.373901 696.617859,689.695007 692.478699,691.047363 
z"/>
<path fill="#689F63" opacity="1.000000" stroke="none" 
	d="
M613.930176,612.444519 
	C618.548096,614.865112 620.116150,619.484497 621.021973,624.782837 
	C616.901489,622.009277 613.806152,618.357056 613.930176,612.444519 
z"/>
<path fill="#689F63" opacity="1.000000" stroke="none" 
	d="
M694.641113,668.231201 
	C696.027344,671.406311 694.421265,673.044434 691.526001,673.946045 
	C689.139648,674.689209 686.975342,674.972290 686.071289,671.494812 
	C688.760193,670.210022 691.520630,669.253357 694.641113,668.231201 
z"/>
<path fill="#689F63" opacity="1.000000" stroke="none" 
	d="
M672.411438,693.883911 
	C674.257263,689.238037 677.614563,688.664368 681.868286,692.504761 
	C678.941284,693.198181 675.882202,693.563049 672.411438,693.883911 
z"/>
<path fill="#689F63" opacity="1.000000" stroke="none" 
	d="
M610.049316,664.561279 
	C614.354736,664.671875 615.656128,666.693970 613.132935,670.816223 
	C611.947144,669.001526 610.997375,666.955444 610.049316,664.561279 
z"/>
<path fill="#689F63" opacity="1.000000" stroke="none" 
	d="
M660.433533,692.898743 
	C661.819214,688.297119 662.822937,688.207092 666.858276,692.532227 
	C664.955688,692.876953 662.911560,692.920471 660.433533,692.898743 
z"/>
<path fill="#689F63" opacity="1.000000" stroke="none" 
	d="
M638.981201,666.672119 
	C637.520325,667.257874 635.931030,667.562317 634.341736,667.866699 
	C634.762634,666.684082 635.183472,665.501404 635.855591,664.134766 
	C637.022217,664.764038 637.937561,665.577393 638.981201,666.672119 
z"/>
<path fill="#689F63" opacity="1.000000" stroke="none" 
	d="
M638.160645,689.418335 
	C640.675110,685.386536 642.474915,686.554016 643.903320,690.523193 
	C642.121582,690.463440 640.243469,690.093262 638.160645,689.418335 
z"/>
<path fill="#689F63" opacity="1.000000" stroke="none" 
	d="
M709.884521,576.620239 
	C706.911072,576.984314 704.002563,576.669006 703.069702,572.516235 
	C705.240784,573.553711 707.482239,574.939819 709.884521,576.620239 
z"/>
<path fill="#689F63" opacity="1.000000" stroke="none" 
	d="
M645.954224,669.678528 
	C644.939514,670.600830 643.773560,671.247681 642.607544,671.894531 
	C642.557251,670.942261 642.506958,669.989929 642.652466,668.790649 
	C643.833130,668.830139 644.817993,669.116638 645.954224,669.678528 
z"/>
<path fill="#689F63" opacity="1.000000" stroke="none" 
	d="
M678.603394,672.101562 
	C678.435608,673.105957 677.870850,674.045349 677.306091,674.984741 
	C676.576233,674.247009 675.846375,673.509216 675.058105,672.468994 
	C676.068542,672.123169 677.137512,672.079834 678.603394,672.101562 
z"/>
<path fill="#689F63" opacity="1.000000" stroke="none" 
	d="
M622.667603,577.021240 
	C623.317749,578.932129 625.333435,582.231812 620.147827,580.095459 
	C620.724182,579.016602 621.553223,578.085022 622.667603,577.021240 
z"/>
<path fill="#689F63" opacity="1.000000" stroke="none" 
	d="
M616.083069,675.401489 
	C616.496399,674.439026 617.032532,673.760010 617.568665,673.080933 
	C617.885559,673.184509 618.202454,673.288086 618.519348,673.391663 
	C618.379517,674.735413 618.239746,676.079163 618.013672,677.754639 
	C617.353577,677.285828 616.779724,676.485291 616.083069,675.401489 
z"/>
<path fill="#689F63" opacity="1.000000" stroke="none" 
	d="
M622.035767,626.323120 
	C622.957947,626.555603 624.026733,627.063904 624.995178,627.811401 
	C623.990723,627.566711 623.086548,627.082886 622.035767,626.323120 
z"/>
<path fill="#689F63" opacity="1.000000" stroke="none" 
	d="
M646.089539,691.341064 
	C646.894897,691.149719 647.886902,691.253662 648.939575,691.595825 
	C648.092224,691.768127 647.184204,691.702209 646.089539,691.341064 
z"/>
<path fill="#689F63" opacity="1.000000" stroke="none" 
	d="
M712.977417,579.675171 
	C712.152954,579.167786 711.197876,578.377747 710.159180,577.266907 
	C710.999329,577.761597 711.923096,578.577087 712.977417,579.675171 
z"/>
<path fill="#689F63" opacity="1.000000" stroke="none" 
	d="
M608.108887,657.300537 
	C608.451538,657.554443 608.737122,658.108826 608.958069,658.856934 
	C608.612854,658.567383 608.332336,658.084229 608.108887,657.300537 
z"/>
<path fill="#70A761" opacity="1.000000" stroke="none" 
	d="
M478.325012,490.861206 
	C478.528107,490.591553 479.031952,490.390564 479.798859,490.121338 
	C479.583191,490.345337 479.104462,490.637604 478.325012,490.861206 
z"/>
<path fill="#639B58" opacity="1.000000" stroke="none" 
	d="
M469.702271,180.134857 
	C469.489380,180.407639 468.965454,180.614212 468.166870,180.886566 
	C468.391876,180.657791 468.891571,180.363220 469.702271,180.134857 
z"/>
<path fill="#639B58" opacity="1.000000" stroke="none" 
	d="
M529.940063,209.667084 
	C529.781250,209.759369 529.572815,209.617889 529.238831,209.327469 
	C529.429138,209.067474 529.688232,209.152405 529.940063,209.667084 
z"/>
<path fill="#000000" opacity="1.000000" stroke="none" 
	d="
M853.709839,361.091919 
	C849.298096,364.700989 845.182007,368.221313 840.630432,371.038055 
	C832.300354,376.193146 823.649292,380.826996 815.257935,385.886963 
	C810.603210,388.693756 806.667969,389.311707 801.541565,386.073425 
	C790.046204,378.811951 777.966614,372.480652 766.300537,365.478119 
	C764.695129,364.514496 763.195923,361.900818 763.162964,360.024445 
	C762.905823,345.374054 762.822021,330.711853 763.213623,316.067413 
	C763.278625,313.636536 765.340393,310.318604 767.461853,309.037933 
	C779.964294,301.490509 792.699097,294.317596 805.525696,287.330719 
	C807.150391,286.445709 810.171387,286.660309 811.862488,287.597656 
	C823.042725,293.794739 834.035156,300.330536 845.091797,306.750732 
	C846.518555,307.579193 848.317139,308.075989 849.321350,309.255890 
	C851.119019,311.367920 853.702393,313.852631 853.759644,316.234406 
	C854.115662,331.043396 853.861145,345.867096 853.709839,361.091919 
z"/>
<path fill="#000000" opacity="1.000000" stroke="none" 
	d="
M818.229980,570.852783 
	C809.079895,571.864075 801.987915,569.636108 797.609558,561.219666 
	C792.917480,552.200195 796.752502,541.910034 804.776672,537.659424 
	C813.795044,532.882263 823.878967,535.878052 829.145203,544.202515 
	C834.446411,552.582275 831.999390,565.612183 818.229980,570.852783 
M817.176331,565.106323 
	C819.250366,565.444214 821.324463,565.782104 822.654968,565.998901 
	C824.817993,559.905762 819.223633,555.189453 822.673279,548.945557 
	C825.064331,544.617737 821.128113,540.425171 815.820496,540.054932 
	C812.388733,539.815613 808.926819,540.009888 805.343872,540.009888 
	C805.343872,548.959900 805.343872,557.347473 805.343872,565.735352 
	C807.293152,565.735352 808.896790,565.735352 811.029053,565.735352 
	C811.029053,562.415039 811.029053,559.335083 811.029053,556.167725 
	C818.123535,555.675415 816.804016,560.493958 817.176331,565.106323 
z"/>
<path fill="#689F63" opacity="1.000000" stroke="none" 
	d="
M817.106995,564.676636 
	C816.804016,560.493958 818.123535,555.675415 811.029053,556.167725 
	C811.029053,559.335083 811.029053,562.415039 811.029053,565.735352 
	C808.896790,565.735352 807.293152,565.735352 805.343872,565.735352 
	C805.343872,557.347473 805.343872,548.959900 805.343872,540.009888 
	C808.926819,540.009888 812.388733,539.815613 815.820496,540.054932 
	C821.128113,540.425171 825.064331,544.617737 822.673279,548.945557 
	C819.223633,555.189453 824.817993,559.905762 822.654968,565.998901 
	C821.324463,565.782104 819.250366,565.444214 817.106995,564.676636 
M812.631226,550.992920 
	C814.868652,551.058289 817.544189,550.891724 816.750671,547.935547 
	C816.351257,546.447510 813.724670,545.557312 812.105286,544.396790 
	C811.591248,544.824463 811.077209,545.252197 810.563171,545.679932 
	C810.979187,547.444702 811.395203,549.209412 812.631226,550.992920 
z"/>
<path fill="#000000" opacity="1.000000" stroke="none" 
	d="
M812.221191,550.983521 
	C811.395203,549.209412 810.979187,547.444702 810.563171,545.679932 
	C811.077209,545.252197 811.591248,544.824463 812.105286,544.396790 
	C813.724670,545.557312 816.351257,546.447510 816.750671,547.935547 
	C817.544189,550.891724 814.868652,551.058289 812.221191,550.983521 
z"/>
</svg>